<svg width="317" height="54" viewBox="0 0 317 54" fill="none" xmlns="http://www.w3.org/2000/svg">
<path d="M22.76 33.2156H9.76L7.28 39.2156H0.64L13.12 11.2156H19.52L32.04 39.2156H25.24L22.76 33.2156ZM20.72 28.2956L16.28 17.5756L11.84 28.2956H20.72Z" fill="#3B5998"/>
<path d="M89.4592 33.9356V39.2156H64.9792V35.0156L80.3392 16.4956H65.2992V11.2156H88.8592V15.4156L73.5392 33.9356H89.4592ZM113.982 28.5356C113.982 28.6156 113.942 29.1756 113.862 30.2156H97.5817C97.8751 31.5489 98.5684 32.6022 99.6617 33.3756C100.755 34.1489 102.115 34.5356 103.742 34.5356C104.862 34.5356 105.848 34.3756 106.702 34.0556C107.582 33.7089 108.395 33.1756 109.142 32.4556L112.462 36.0556C110.435 38.3756 107.475 39.5356 103.582 39.5356C101.155 39.5356 99.0084 39.0689 97.1417 38.1356C95.2751 37.1756 93.8351 35.8556 92.8217 34.1756C91.8084 32.4956 91.3017 30.5889 91.3017 28.4556C91.3017 26.3489 91.7951 24.4556 92.7817 22.7756C93.7951 21.0689 95.1684 19.7489 96.9017 18.8156C98.6617 17.8556 100.622 17.3756 102.782 17.3756C104.888 17.3756 106.795 17.8289 108.502 18.7356C110.208 19.6422 111.542 20.9489 112.502 22.6556C113.488 24.3356 113.982 26.2956 113.982 28.5356ZM102.822 22.0956C101.408 22.0956 100.222 22.4956 99.2617 23.2956C98.3017 24.0956 97.7151 25.1889 97.5017 26.5756H108.102C107.888 25.2156 107.302 24.1356 106.342 23.3356C105.382 22.5089 104.208 22.0956 102.822 22.0956ZM124.096 20.5356C124.843 19.4956 125.843 18.7089 127.096 18.1756C128.376 17.6422 129.843 17.3756 131.496 17.3756V23.1356C130.803 23.0822 130.336 23.0556 130.096 23.0556C128.309 23.0556 126.909 23.5622 125.896 24.5756C124.883 25.5622 124.376 27.0556 124.376 29.0556V39.2156H118.136V17.6956H124.096V20.5356ZM156.091 28.5356C156.091 28.6156 156.051 29.1756 155.971 30.2156H139.691C139.984 31.5489 140.678 32.6022 141.771 33.3756C142.864 34.1489 144.224 34.5356 145.851 34.5356C146.971 34.5356 147.958 34.3756 148.811 34.0556C149.691 33.7089 150.504 33.1756 151.251 32.4556L154.571 36.0556C152.544 38.3756 149.584 39.5356 145.691 39.5356C143.264 39.5356 141.118 39.0689 139.251 38.1356C137.384 37.1756 135.944 35.8556 134.931 34.1756C133.918 32.4956 133.411 30.5889 133.411 28.4556C133.411 26.3489 133.904 24.4556 134.891 22.7756C135.904 21.0689 137.278 19.7489 139.011 18.8156C140.771 17.8556 142.731 17.3756 144.891 17.3756C146.998 17.3756 148.904 17.8289 150.611 18.7356C152.318 19.6422 153.651 20.9489 154.611 22.6556C155.598 24.3356 156.091 26.2956 156.091 28.5356ZM144.931 22.0956C143.518 22.0956 142.331 22.4956 141.371 23.2956C140.411 24.0956 139.824 25.1889 139.611 26.5756H150.211C149.998 25.2156 149.411 24.1356 148.451 23.3356C147.491 22.5089 146.318 22.0956 144.931 22.0956Z" fill="black"/>
<rect x="42.0542" y="17.3906" width="4.81069" height="21.825" rx="2.40535" fill="#3B5998"/>
<rect x="34.6658" y="21.5017" width="4.81069" height="13.6027" rx="2.40535" fill="#3B5998"/>
<rect x="49.4421" y="21.5017" width="4.81069" height="13.6027" rx="2.40535" fill="#3B5998"/>
<ellipse cx="44.4594" cy="13.2246" rx="2.40542" ry="2.39992" fill="#3B5998"/>
<path d="M207.464 22.2156V9.43558H216.68V11.5776H209.93V14.6556H213.404C214.832 14.6556 215.906 14.9916 216.626 15.6636C217.346 16.3356 217.706 17.2356 217.706 18.3636C217.706 19.5036 217.358 20.4336 216.662 21.1536C215.966 21.8616 214.922 22.2156 213.53 22.2156H207.464ZM209.93 20.0736H213.188C213.908 20.0736 214.418 19.8876 214.718 19.5156C215.018 19.1436 215.168 18.7296 215.168 18.2736C215.168 17.9856 215.108 17.7156 214.988 17.4636C214.88 17.1996 214.676 16.9896 214.376 16.8336C214.088 16.6656 213.68 16.5816 213.152 16.5816H209.93V20.0736ZM223.591 22.3956C222.571 22.3956 221.689 22.1736 220.945 21.7296C220.213 21.2856 219.643 20.6976 219.235 19.9656C218.827 19.2216 218.623 18.4176 218.623 17.5536C218.623 16.6656 218.821 15.8496 219.217 15.1056C219.625 14.3496 220.201 13.7496 220.945 13.3056C221.689 12.8496 222.577 12.6216 223.609 12.6216C224.641 12.6216 225.523 12.8496 226.255 13.3056C226.987 13.7496 227.545 14.3436 227.929 15.0876C228.325 15.8196 228.523 16.6116 228.523 17.4636C228.523 17.7756 228.505 18.0456 228.469 18.2736H221.179C221.239 19.0056 221.509 19.5816 221.989 20.0016C222.481 20.4216 223.045 20.6316 223.681 20.6316C224.161 20.6316 224.611 20.5176 225.031 20.2896C225.463 20.0496 225.757 19.7376 225.913 19.3536L227.983 19.9296C227.635 20.6496 227.077 21.2436 226.309 21.7116C225.541 22.1676 224.635 22.3956 223.591 22.3956ZM221.125 16.7436H226.057C225.985 16.0356 225.715 15.4656 225.247 15.0336C224.791 14.5896 224.233 14.3676 223.573 14.3676C222.925 14.3676 222.367 14.5896 221.899 15.0336C221.443 15.4656 221.185 16.0356 221.125 16.7436ZM234.385 22.3956C233.365 22.3956 232.483 22.1676 231.739 21.7116C230.995 21.2556 230.419 20.6556 230.011 19.9116C229.603 19.1676 229.399 18.3636 229.399 17.4996C229.399 16.6236 229.597 15.8136 229.993 15.0696C230.401 14.3256 230.977 13.7316 231.721 13.2876C232.465 12.8436 233.347 12.6216 234.367 12.6216C235.399 12.6216 236.275 12.8436 236.995 13.2876C237.727 13.7316 238.273 14.3136 238.633 15.0336L236.275 15.7536C235.855 15.0336 235.213 14.6736 234.349 14.6736C233.881 14.6736 233.461 14.7936 233.089 15.0336C232.717 15.2616 232.423 15.5916 232.207 16.0236C231.991 16.4436 231.883 16.9356 231.883 17.4996C231.883 18.0516 231.991 18.5436 232.207 18.9756C232.435 19.3956 232.735 19.7316 233.107 19.9836C233.479 20.2236 233.893 20.3436 234.349 20.3436C234.781 20.3436 235.177 20.2416 235.537 20.0376C235.909 19.8216 236.167 19.5516 236.311 19.2276L238.669 19.9476C238.345 20.6556 237.805 21.2436 237.049 21.7116C236.305 22.1676 235.417 22.3956 234.385 22.3956ZM240.153 22.2156V12.7836H248.613V22.2156H246.201V14.8896H242.565V22.2156H240.153ZM250.121 22.3416V20.1996C250.505 20.1876 250.835 20.0616 251.111 19.8216C251.399 19.5816 251.627 19.1436 251.795 18.5076C251.963 17.8716 252.071 16.9536 252.119 15.7536L252.245 12.7836H259.319V22.2156H256.907V14.8896H254.369L254.333 15.9876C254.261 17.6316 254.063 18.9156 253.739 19.8396C253.427 20.7516 252.971 21.3936 252.371 21.7656C251.771 22.1376 251.021 22.3296 250.121 22.3416ZM260.862 19.4256C260.862 18.8136 261.03 18.2796 261.366 17.8236C261.714 17.3556 262.194 16.9956 262.806 16.7436C263.418 16.4916 264.12 16.3656 264.912 16.3656C265.308 16.3656 265.71 16.4016 266.118 16.4736C266.526 16.5336 266.88 16.6236 267.18 16.7436V16.2396C267.18 15.6396 267 15.1776 266.64 14.8536C266.292 14.5296 265.77 14.3676 265.074 14.3676C264.558 14.3676 264.066 14.4576 263.598 14.6376C263.13 14.8176 262.638 15.0816 262.122 15.4296L261.348 13.8456C261.972 13.4376 262.608 13.1316 263.256 12.9276C263.916 12.7236 264.606 12.6216 265.326 12.6216C266.67 12.6216 267.714 12.9576 268.458 13.6296C269.214 14.3016 269.592 15.2616 269.592 16.5096V19.5156C269.592 19.7796 269.634 19.9656 269.718 20.0736C269.802 20.1696 269.952 20.2296 270.168 20.2536V22.2156C269.952 22.2636 269.754 22.2936 269.574 22.3056C269.406 22.3296 269.262 22.3416 269.142 22.3416C268.662 22.3416 268.296 22.2336 268.044 22.0176C267.792 21.8016 267.642 21.5376 267.594 21.2256L267.54 20.7396C267.12 21.2796 266.604 21.6936 265.992 21.9816C265.392 22.2576 264.774 22.3956 264.138 22.3956C263.502 22.3956 262.938 22.2696 262.446 22.0176C261.954 21.7536 261.564 21.3996 261.276 20.9556C261 20.4996 260.862 19.9896 260.862 19.4256ZM266.73 19.9116C267.03 19.6236 267.18 19.3476 267.18 19.0836V18.1296C266.556 17.8776 265.926 17.7516 265.29 17.7516C264.654 17.7516 264.138 17.8896 263.742 18.1656C263.346 18.4296 263.148 18.7836 263.148 19.2276C263.148 19.5876 263.292 19.9116 263.58 20.1996C263.868 20.4876 264.282 20.6316 264.822 20.6316C265.182 20.6316 265.53 20.5656 265.866 20.4336C266.214 20.3016 266.502 20.1276 266.73 19.9116ZM273.919 22.2156V14.8896H270.931V12.7836H279.337V14.8896H276.331V22.2156H273.919ZM280.688 22.2156V12.7836H283.1V16.3836H286.916V12.7836H289.328V22.2156H286.916V18.3996H283.1V22.2156H280.688ZM291.534 22.2156V12.7836H293.946V15.7536H295.602C296.742 15.7536 297.612 16.0416 298.212 16.6176C298.812 17.1936 299.112 17.9556 299.112 18.9036C299.112 19.8756 298.824 20.6736 298.248 21.2976C297.684 21.9096 296.856 22.2156 295.764 22.2156H291.534ZM300.588 22.2156V12.8016H303V22.2156H300.588ZM293.946 20.3796H295.386C295.878 20.3796 296.238 20.2416 296.466 19.9656C296.694 19.6776 296.808 19.3296 296.808 18.9216C296.808 18.5256 296.7 18.1956 296.484 17.9316C296.268 17.6556 295.896 17.5176 295.368 17.5176H293.946V20.3796ZM305.209 22.2156V12.8016H307.621V18.9936L311.851 12.7836H314.047V22.2156H311.635V16.1676L307.459 22.2156H305.209ZM309.637 11.9016C308.713 11.9016 307.987 11.6676 307.459 11.1996C306.931 10.7196 306.667 10.1076 306.667 9.36358H308.161C308.161 9.72358 308.275 10.0236 308.503 10.2636C308.743 10.5036 309.121 10.6236 309.637 10.6236C310.141 10.6236 310.501 10.5096 310.717 10.2816C310.945 10.0536 311.083 9.74758 311.131 9.36358H312.625C312.625 10.1076 312.361 10.7196 311.833 11.1996C311.305 11.6676 310.573 11.9016 309.637 11.9016ZM211.586 47.3956C210.566 47.3956 209.684 47.1676 208.94 46.7116C208.196 46.2556 207.62 45.6556 207.212 44.9116C206.804 44.1676 206.6 43.3636 206.6 42.4996C206.6 41.6236 206.798 40.8136 207.194 40.0696C207.602 39.3256 208.178 38.7316 208.922 38.2876C209.666 37.8436 210.548 37.6216 211.568 37.6216C212.6 37.6216 213.476 37.8436 214.196 38.2876C214.928 38.7316 215.474 39.3136 215.834 40.0336L213.476 40.7536C213.056 40.0336 212.414 39.6736 211.55 39.6736C211.082 39.6736 210.662 39.7936 210.29 40.0336C209.918 40.2616 209.624 40.5916 209.408 41.0236C209.192 41.4436 209.084 41.9356 209.084 42.4996C209.084 43.0516 209.192 43.5436 209.408 43.9756C209.636 44.3956 209.936 44.7316 210.308 44.9836C210.68 45.2236 211.094 45.3436 211.55 45.3436C211.982 45.3436 212.378 45.2416 212.738 45.0376C213.11 44.8216 213.368 44.5516 213.512 44.2276L215.87 44.9476C215.546 45.6556 215.006 46.2436 214.25 46.7116C213.506 47.1676 212.618 47.3956 211.586 47.3956ZM217.354 47.2156V37.8016H219.766V43.9936L223.996 37.7836H226.192V47.2156H223.78V41.1676L219.604 47.2156H217.354ZM228.393 47.2156V37.7836H230.805V41.3836H234.621V37.7836H237.033V47.2156H234.621V43.3996H230.805V47.2156H228.393ZM241.417 47.2156V39.8896H238.429V37.7836H246.835V39.8896H243.829V47.2156H241.417ZM252.56 47.3956C251.54 47.3956 250.658 47.1736 249.914 46.7296C249.182 46.2856 248.612 45.6976 248.204 44.9656C247.796 44.2216 247.592 43.4176 247.592 42.5536C247.592 41.6656 247.79 40.8496 248.186 40.1056C248.594 39.3496 249.17 38.7496 249.914 38.3056C250.658 37.8496 251.546 37.6216 252.578 37.6216C253.61 37.6216 254.492 37.8496 255.224 38.3056C255.956 38.7496 256.514 39.3436 256.898 40.0876C257.294 40.8196 257.492 41.6116 257.492 42.4636C257.492 42.7756 257.474 43.0456 257.438 43.2736H250.148C250.208 44.0056 250.478 44.5816 250.958 45.0016C251.45 45.4216 252.014 45.6316 252.65 45.6316C253.13 45.6316 253.58 45.5176 254 45.2896C254.432 45.0496 254.726 44.7376 254.882 44.3536L256.952 44.9296C256.604 45.6496 256.046 46.2436 255.278 46.7116C254.51 47.1676 253.604 47.3956 252.56 47.3956ZM250.094 41.7436H255.026C254.954 41.0356 254.684 40.4656 254.216 40.0336C253.76 39.5896 253.202 39.3676 252.542 39.3676C251.894 39.3676 251.336 39.5896 250.868 40.0336C250.412 40.4656 250.154 41.0356 250.094 41.7436ZM262.327 47.3596C261.319 47.3596 260.473 47.1796 259.789 46.8196C259.117 46.4596 258.595 45.9616 258.223 45.3256L260.167 44.4436C260.371 44.7556 260.635 45.0016 260.959 45.1816C261.295 45.3496 261.709 45.4336 262.201 45.4336C262.765 45.4336 263.197 45.3256 263.497 45.1096C263.809 44.8816 263.965 44.5876 263.965 44.2276C263.965 43.9036 263.839 43.6396 263.587 43.4356C263.335 43.2196 262.963 43.1116 262.471 43.1116H261.499V41.6176H262.489C262.825 41.6176 263.089 41.5216 263.281 41.3296C263.485 41.1376 263.587 40.8856 263.587 40.5736C263.587 40.2616 263.467 40.0156 263.227 39.8356C262.999 39.6436 262.633 39.5476 262.129 39.5476C261.709 39.5476 261.361 39.6256 261.085 39.7816C260.809 39.9376 260.587 40.1716 260.419 40.4836L258.601 39.5116C258.937 38.9236 259.417 38.4616 260.041 38.1256C260.677 37.7896 261.415 37.6216 262.255 37.6216C262.915 37.6216 263.503 37.7236 264.019 37.9276C264.547 38.1316 264.961 38.4316 265.261 38.8276C265.561 39.2116 265.711 39.6856 265.711 40.2496C265.711 40.6576 265.609 41.0536 265.405 41.4376C265.213 41.8216 264.895 42.1036 264.451 42.2836C265.027 42.4516 265.459 42.7396 265.747 43.1476C266.047 43.5556 266.197 44.0356 266.197 44.5876C266.197 45.1876 266.029 45.6976 265.693 46.1176C265.357 46.5256 264.895 46.8376 264.307 47.0536C263.731 47.2576 263.071 47.3596 262.327 47.3596ZM277.867 47.3956C277.123 47.3956 276.475 47.2276 275.923 46.8916C275.371 46.5556 274.939 46.1116 274.627 45.5596V51.0496H272.215V37.7836H274.321V39.4036C274.669 38.8516 275.119 38.4196 275.671 38.1076C276.235 37.7836 276.871 37.6216 277.579 37.6216C278.431 37.6216 279.187 37.8436 279.847 38.2876C280.507 38.7196 281.029 39.3076 281.413 40.0516C281.797 40.7836 281.989 41.5936 281.989 42.4816C281.989 43.4056 281.809 44.2396 281.449 44.9836C281.101 45.7156 280.615 46.3036 279.991 46.7476C279.379 47.1796 278.671 47.3956 277.867 47.3956ZM277.057 45.3436C277.549 45.3436 277.975 45.2116 278.335 44.9476C278.707 44.6716 278.995 44.3176 279.199 43.8856C279.415 43.4416 279.523 42.9736 279.523 42.4816C279.523 41.9536 279.409 41.4796 279.181 41.0596C278.953 40.6276 278.641 40.2916 278.245 40.0516C277.861 39.7996 277.417 39.6736 276.913 39.6736C276.457 39.6736 276.001 39.8236 275.545 40.1236C275.089 40.4236 274.783 40.8016 274.627 41.2576V43.4716C274.843 43.9996 275.173 44.4436 275.617 44.8036C276.061 45.1636 276.541 45.3436 277.057 45.3436ZM287.997 47.3956C286.977 47.3956 286.095 47.1736 285.351 46.7296C284.619 46.2856 284.049 45.6976 283.641 44.9656C283.233 44.2216 283.029 43.4176 283.029 42.5536C283.029 41.6656 283.227 40.8496 283.623 40.1056C284.031 39.3496 284.607 38.7496 285.351 38.3056C286.095 37.8496 286.983 37.6216 288.015 37.6216C289.047 37.6216 289.929 37.8496 290.661 38.3056C291.393 38.7496 291.951 39.3436 292.335 40.0876C292.731 40.8196 292.929 41.6116 292.929 42.4636C292.929 42.7756 292.911 43.0456 292.875 43.2736H285.585C285.645 44.0056 285.915 44.5816 286.395 45.0016C286.887 45.4216 287.451 45.6316 288.087 45.6316C288.567 45.6316 289.017 45.5176 289.437 45.2896C289.869 45.0496 290.163 44.7376 290.319 44.3536L292.389 44.9296C292.041 45.6496 291.483 46.2436 290.715 46.7116C289.947 47.1676 289.041 47.3956 287.997 47.3956ZM285.531 41.7436H290.463C290.391 41.0356 290.121 40.4656 289.653 40.0336C289.197 39.5896 288.639 39.3676 287.979 39.3676C287.331 39.3676 286.773 39.5896 286.305 40.0336C285.849 40.4656 285.591 41.0356 285.531 41.7436ZM299.655 47.2156V43.8316C298.983 44.1316 298.203 44.2816 297.315 44.2816C296.319 44.2816 295.539 44.0176 294.975 43.4896C294.411 42.9496 294.129 42.1636 294.129 41.1316V37.7836H296.541V40.8076C296.541 41.8996 297.045 42.4456 298.053 42.4456C298.341 42.4456 298.623 42.4156 298.899 42.3556C299.187 42.2956 299.439 42.2116 299.655 42.1036V37.7836H302.085V47.2156H299.655ZM304.278 47.2156V37.8016H306.69V43.9936L310.92 37.7836H313.116V47.2156H310.704V41.1676L306.528 47.2156H304.278Z" fill="black"/>
<path d="M175.721 4.89697L175.721 47.7848M183.387 5.89697H168.064M183.387 47.5546H168.064" stroke="black" stroke-width="2"/>
</svg>
