<svg width="36" height="28" viewBox="0 0 36 28" fill="none" xmlns="http://www.w3.org/2000/svg">
<path d="M28.5821 19.1741L23.3133 13.836L28.5821 8.49791L26.5023 6.41812L21.2335 11.7562L15.8954 6.41812L13.8156 8.49791L19.1538 13.836L13.8156 19.1741L15.8954 21.2539L21.2335 15.9158L26.5023 21.2539L28.5821 19.1741ZM33.019 0.525391C33.8047 0.525391 34.498 0.825804 35.0988 1.42663C35.6996 2.02746 36 2.72072 36 3.50642V24.1656C36 24.9513 35.6996 25.6446 35.0988 26.2454C34.498 26.8462 33.8047 27.1467 33.019 27.1467H10.8346C9.91026 27.1467 9.12457 26.7076 8.47752 25.8295L0.505005 13.836L8.47752 1.84259C9.12457 0.964457 9.91026 0.525391 10.8346 0.525391H33.019Z" fill="#FFD15A"/>
</svg>
