<svg width="20" height="28" viewBox="0 0 20 28" fill="none" xmlns="http://www.w3.org/2000/svg">
<path d="M8.35986 9.90245C8.35986 8.99657 9.09423 8.26221 10.0001 8.26221C10.906 8.26221 11.6404 8.99657 11.6404 9.90245V25.6098C11.6404 26.5156 10.906 27.25 10.0001 27.25C9.09423 27.25 8.35986 26.5156 8.35986 25.6098V9.90245Z" stroke="#0A84FF" stroke-width="1.5"/>
<path d="M0.847656 13.317C0.847656 12.4111 1.58202 11.6768 2.4879 11.6768C3.39378 11.6768 4.12814 12.4111 4.12814 13.317V22.195C4.12814 23.1009 3.39378 23.8353 2.4879 23.8353C1.58202 23.8353 0.847656 23.1009 0.847656 22.195V13.317Z" stroke="#0A84FF" stroke-width="1.5"/>
<path d="M8.35986 2.39024C8.35986 1.48436 9.09423 0.75 10.0001 0.75C10.906 0.75 11.6404 1.48436 11.6404 2.39024C11.6404 3.29612 10.906 4.03049 10.0001 4.03049C9.09423 4.03049 8.35986 3.29612 8.35986 2.39024Z" stroke="#0A84FF" stroke-width="1.5"/>
<path d="M15.8721 13.317C15.8721 12.4111 16.6064 11.6768 17.5123 11.6768C18.4182 11.6768 19.1526 12.4111 19.1526 13.317V22.195C19.1526 23.1009 18.4182 23.8353 17.5123 23.8353C16.6064 23.8353 15.8721 23.1009 15.8721 22.195V13.317Z" stroke="#0A84FF" stroke-width="1.5"/>
</svg>
