<svg width="217" height="55" viewBox="0 0 217 55" fill="none" xmlns="http://www.w3.org/2000/svg">
<path d="M64.4026 19.4512C64.4026 16.8582 66.5047 14.7561 69.0977 14.7561C71.6908 14.7561 73.7928 16.8582 73.7928 19.4512V50.3049C73.7928 52.8979 71.6908 55 69.0977 55C66.5047 55 64.4026 52.8979 64.4026 50.3049V19.4512Z" fill="#0A84FF"/>
<path d="M49.6465 26.1585C49.6465 23.5655 51.7486 21.4634 54.3416 21.4634C56.9346 21.4634 59.0367 23.5655 59.0367 26.1585V43.5975C59.0367 46.1906 56.9346 48.2926 54.3416 48.2926C51.7486 48.2926 49.6465 46.1906 49.6465 43.5975V26.1585Z" fill="#0A84FF"/>
<path d="M64.4026 4.69512C64.4026 2.10208 66.5047 0 69.0977 0C71.6908 0 73.7928 2.10208 73.7928 4.69512C73.7928 7.28817 71.6908 9.39024 69.0977 9.39024C66.5047 9.39024 64.4026 7.28817 64.4026 4.69512Z" fill="#0A84FF"/>
<path d="M79.1587 26.1585C79.1587 23.5655 81.2608 21.4634 83.8538 21.4634C86.4469 21.4634 88.5489 23.5655 88.5489 26.1585V43.5975C88.5489 46.1906 86.4469 48.2926 83.8538 48.2926C81.2608 48.2926 79.1587 46.1906 79.1587 43.5975V26.1585Z" fill="#0A84FF"/>
<path d="M8.84146 48.2927H0L13.4718 9.26831H24.1044L37.5572 48.2927H28.7157L18.9405 18.186H18.6357L8.84146 48.2927ZM8.28887 32.9535H29.173V39.3941H8.28887V32.9535Z" fill="#0A84FF"/>
<path d="M102.693 48.2927V43.3956L122.167 16.0709H102.655V9.26831H132.533V14.1654L113.04 41.4901H132.571V48.2927H102.693Z" fill="#0A84FF"/>
<path d="M151.418 48.8643C148.407 48.8643 145.816 48.2546 143.643 47.0351C141.484 45.8029 139.82 44.0625 138.651 41.814C137.482 39.5529 136.898 36.8788 136.898 33.7919C136.898 30.7813 137.482 28.139 138.651 25.8651C139.82 23.5912 141.465 21.8191 143.586 20.5488C145.72 19.2785 148.223 18.6433 151.094 18.6433C153.025 18.6433 154.822 18.9545 156.486 19.577C158.163 20.1868 159.624 21.1077 160.869 22.34C162.127 23.5722 163.105 25.122 163.803 26.9893C164.502 28.844 164.851 31.0163 164.851 33.5061V35.7355H140.137V30.705H157.21C157.21 29.5363 156.956 28.501 156.448 27.5991C155.94 26.6972 155.235 25.9921 154.333 25.484C153.444 24.9632 152.409 24.7028 151.227 24.7028C149.995 24.7028 148.902 24.9886 147.95 25.5602C147.01 26.1192 146.273 26.875 145.739 27.8278C145.206 28.7678 144.933 29.8158 144.92 30.9718V35.7546C144.92 37.2028 145.187 38.454 145.72 39.5084C146.266 40.5628 147.035 41.3758 148.026 41.9474C149.017 42.5191 150.192 42.8049 151.551 42.8049C152.453 42.8049 153.279 42.6779 154.028 42.4238C154.778 42.1697 155.419 41.7886 155.953 41.2805C156.486 40.7724 156.893 40.1499 157.172 39.4131L164.68 39.9086C164.299 41.7124 163.518 43.2876 162.336 44.6342C161.167 45.968 159.656 47.0097 157.801 47.7592C155.959 48.4959 153.831 48.8643 151.418 48.8643Z" fill="#0A84FF"/>
<path d="M169.478 48.2927V19.0244H177.348V24.1311H177.652C178.186 22.3145 179.082 20.9426 180.339 20.0153C181.597 19.0752 183.045 18.6052 184.684 18.6052C185.09 18.6052 185.528 18.6306 185.998 18.6814C186.468 18.7322 186.881 18.8021 187.237 18.891V26.0938C186.856 25.9794 186.329 25.8778 185.655 25.7889C184.982 25.7 184.366 25.6555 183.807 25.6555C182.613 25.6555 181.546 25.9159 180.606 26.4368C179.679 26.9449 178.942 27.6563 178.396 28.5709C177.862 29.4855 177.595 30.5399 177.595 31.734V48.2927H169.478Z" fill="#0A84FF"/>
<path d="M202.739 48.8643C199.728 48.8643 197.137 48.2546 194.965 47.0351C192.805 45.8029 191.141 44.0625 189.972 41.814C188.804 39.5529 188.219 36.8788 188.219 33.7919C188.219 30.7813 188.804 28.139 189.972 25.8651C191.141 23.5912 192.786 21.8191 194.908 20.5488C197.042 19.2785 199.544 18.6433 202.415 18.6433C204.346 18.6433 206.144 18.9545 207.808 19.577C209.485 20.1868 210.945 21.1077 212.19 22.34C213.448 23.5722 214.426 25.122 215.125 26.9893C215.823 28.844 216.173 31.0163 216.173 33.5061V35.7355H191.459V30.705H208.532C208.532 29.5363 208.278 28.501 207.77 27.5991C207.261 26.6972 206.556 25.9921 205.655 25.484C204.765 24.9632 203.73 24.7028 202.549 24.7028C201.316 24.7028 200.224 24.9886 199.271 25.5602C198.331 26.1192 197.594 26.875 197.061 27.8278C196.527 28.7678 196.254 29.8158 196.241 30.9718V35.7546C196.241 37.2028 196.508 38.454 197.042 39.5084C197.588 40.5628 198.356 41.3758 199.347 41.9474C200.338 42.5191 201.513 42.8049 202.873 42.8049C203.774 42.8049 204.6 42.6779 205.35 42.4238C206.099 42.1697 206.741 41.7886 207.274 41.2805C207.808 40.7724 208.214 40.1499 208.494 39.4131L216.001 39.9086C215.62 41.7124 214.839 43.2876 213.658 44.6342C212.489 45.968 210.977 47.0097 209.123 47.7592C207.281 48.4959 205.153 48.8643 202.739 48.8643Z" fill="#0A84FF"/>
</svg>
