<svg width="24" height="24" viewBox="0 0 24 24" fill="none" xmlns="http://www.w3.org/2000/svg">
<g clip-path="url(#clip0_1010_13541)">
<path d="M23.1429 18.0003V21.4289C23.1429 21.8835 22.9623 22.3195 22.6408 22.641C22.3193 22.9625 21.8833 23.1431 21.4286 23.1431H18M18 0.857422H21.4286C21.8833 0.857422 22.3193 1.03803 22.6408 1.35952C22.9623 1.68102 23.1429 2.11705 23.1429 2.57171V6.00028M0.857178 6.00028V2.57171C0.857178 2.11705 1.03779 1.68102 1.35928 1.35952C1.68077 1.03803 2.11681 0.857422 2.57146 0.857422H6.00003M6.00003 23.1431H2.57146C2.11681 23.1431 1.68077 22.9625 1.35928 22.641C1.03779 22.3195 0.857178 21.8835 0.857178 21.4289V18.0003M6.85718 6.00028V9.42885M17.1429 6.00028V9.42885M12 7.71456V13.7146H9.42861M7.71432 17.1431C8.87081 18.2417 10.405 18.8542 12 18.8542C13.5951 18.8542 15.1293 18.2417 16.2857 17.1431" stroke="#1F2021" stroke-width="1.5" stroke-linecap="round" stroke-linejoin="round"/>
</g>
<defs>
<clipPath id="clip0_1010_13541">
<rect width="24" height="24" fill="white"/>
</clipPath>
</defs>
</svg>
