<svg width="48" height="48" viewBox="0 0 48 48" fill="none" xmlns="http://www.w3.org/2000/svg">
<path d="M4 28C4 30.1217 4.84285 32.1566 6.34315 33.6569C7.84344 35.1571 9.87827 36 12 36C14.1217 36 16.1566 35.1571 17.6569 33.6569C19.1571 32.1566 20 30.1217 20 28M4 28C4 25.8783 4.84285 23.8434 6.34315 22.3431C7.84344 20.8429 9.87827 20 12 20C14.1217 20 16.1566 20.8429 17.6569 22.3431C19.1571 23.8434 20 25.8783 20 28M4 28V12M20 28H28M44 28C44 30.1217 43.1571 32.1566 41.6569 33.6569C40.1566 35.1571 38.1217 36 36 36C33.8783 36 31.8434 35.1571 30.3431 33.6569C28.8429 32.1566 28 30.1217 28 28M44 28C44 25.8783 43.1571 23.8434 41.6569 22.3431C40.1566 20.8429 38.1217 20 36 20C33.8783 20 31.8434 20.8429 30.3431 22.3431C28.8429 23.8434 28 25.8783 28 28M44 28V12" stroke="#1F2021" stroke-width="1.5" stroke-linecap="round" stroke-linejoin="round"/>
</svg>
