<svg width="28" height="28" viewBox="0 0 28 28" fill="none" xmlns="http://www.w3.org/2000/svg">
<path d="M13.9999 25.2584C13.6383 25.2584 13.2883 25.2117 12.9966 25.1067C8.53992 23.5784 1.45825 18.1534 1.45825 10.1384C1.45825 6.05503 4.75992 2.7417 8.81992 2.7417C10.7916 2.7417 12.6349 3.5117 13.9999 4.88837C15.3649 3.5117 17.2083 2.7417 19.1799 2.7417C23.2399 2.7417 26.5416 6.0667 26.5416 10.1384C26.5416 18.165 19.4599 23.5784 15.0033 25.1067C14.7116 25.2117 14.3616 25.2584 13.9999 25.2584ZM8.81992 4.4917C5.72825 4.4917 3.20825 7.02337 3.20825 10.1384C3.20825 18.1067 10.8733 22.54 13.5683 23.4617C13.7783 23.5317 14.2333 23.5317 14.4433 23.4617C17.1266 22.54 24.8033 18.1184 24.8033 10.1384C24.8033 7.02337 22.2833 4.4917 19.1916 4.4917C17.4183 4.4917 15.7733 5.32003 14.7116 6.75503C14.3849 7.19837 13.6383 7.19837 13.3116 6.75503C12.2266 5.30837 10.5933 4.4917 8.81992 4.4917Z" fill="#8A8E99"/>
</svg>
