<svg width="32" height="32" viewBox="0 0 32 32" fill="none" xmlns="http://www.w3.org/2000/svg">
<path fill-rule="evenodd" clip-rule="evenodd" d="M16 0C19.3823 0 22.5195 1.04952 25.1037 2.84066L25.0657 5.65242L22.5074 6.18376C20.6431 4.94543 18.4058 4.224 16 4.224C9.49629 4.224 4.224 9.49629 4.224 16C4.224 16.6661 4.2793 17.3192 4.38555 17.9551L2.33854 16.582L0.241204 18.7831C0.0826702 17.8793 0 16.9493 0 16C0 7.16344 7.16344 0 16 0ZM27.776 16C27.776 13.0736 26.7085 10.3965 24.9417 8.33682L27.7068 7.83125L27.678 5.06265C30.3586 7.92361 32 11.7701 32 16C32 20.9903 29.7154 25.447 26.135 28.3813L23.5665 27.5479L23.83 24.796C26.2511 22.6391 27.776 19.4976 27.776 16ZM21.0374 26.6472C19.5102 27.3711 17.8024 27.776 16 27.776C11.6826 27.776 7.90792 25.4526 5.85794 21.988L2.71219 19.9855L1.03223 21.6661C3.31988 27.706 9.15848 32 16 32C18.6498 32 21.1492 31.3559 23.3501 30.2156L20.7041 29.4265L21.0374 26.6472Z" fill="white"/>
</svg>
