<svg width="29" height="28" viewBox="0 0 29 28" fill="none" xmlns="http://www.w3.org/2000/svg">
<path d="M10.5431 24.5714C10.5431 24.5714 10.5431 19.3469 3.00006 19.3469C2.99993 13.4694 3.00006 4 3.00006 4C3.00006 4 5.05666 4.32653 8.82817 4.32653C12.5997 4.32653 14.6574 6.61224 14.6574 6.61224M14.6574 6.61224C14.6574 6.61224 15.0009 4 20.829 4C26.6571 4 27 6.61224 27 6.61224C27 6.61224 27 14.7752 27 16.7347C27 18.6942 20.829 19.3469 20.829 19.3469M14.6574 6.61224C14.6574 6.61224 14.6574 10.5986 14.6574 13.7143M20.829 19.3469C20.829 19.3469 14.6574 19.0204 14.6574 16.7347C14.6574 16.0792 14.6574 14.9671 14.6574 13.7143M20.829 19.3469V24.5714M20.829 24.5714H16.0289M20.829 24.5714H25.972M14.6574 13.7143H20.829" stroke="#8A8E99" stroke-width="1.5"/>
</svg>
