<svg width="48" height="48" viewBox="0 0 48 48" fill="none" xmlns="http://www.w3.org/2000/svg">
<path d="M11.9585 32H9.74254L16.1516 14.5455H18.3335L24.7425 32H22.5266L17.3107 17.3068H17.1744L11.9585 32ZM12.7766 25.1818H21.7085V27.0568H12.7766V25.1818ZM31.0408 32.3068C30.2113 32.3068 29.4585 32.1506 28.7823 31.8381C28.1062 31.5199 27.5692 31.0625 27.1715 30.4659C26.7738 29.8636 26.5749 29.1364 26.5749 28.2841C26.5749 27.5341 26.7227 26.9261 27.0181 26.4602C27.3136 25.9886 27.7085 25.6193 28.2028 25.3523C28.6971 25.0852 29.2425 24.8864 29.8391 24.7557C30.4414 24.6193 31.0465 24.5114 31.6545 24.4318C32.4499 24.3295 33.0948 24.2528 33.5891 24.2017C34.0891 24.1449 34.4528 24.0511 34.68 23.9205C34.913 23.7898 35.0295 23.5625 35.0295 23.2386V23.1705C35.0295 22.3295 34.7994 21.6761 34.3391 21.2102C33.8846 20.7443 33.1942 20.5114 32.2681 20.5114C31.3079 20.5114 30.555 20.7216 30.0096 21.142C29.4641 21.5625 29.0806 22.0114 28.859 22.4886L26.9499 21.8068C27.2908 21.0114 27.7454 20.392 28.3136 19.9489C28.8874 19.5 29.5124 19.1875 30.1886 19.0114C30.8704 18.8295 31.5408 18.7386 32.1999 18.7386C32.6204 18.7386 33.1033 18.7898 33.6488 18.892C34.1999 18.9886 34.7312 19.1903 35.2425 19.4972C35.7596 19.804 36.1886 20.267 36.5295 20.8864C36.8704 21.5057 37.0408 22.3352 37.0408 23.375V32H35.0295V30.2273H34.9272C34.7908 30.5114 34.5636 30.8153 34.2454 31.1392C33.9272 31.4631 33.5039 31.7386 32.9755 31.9659C32.4471 32.1932 31.8022 32.3068 31.0408 32.3068ZM31.3477 30.5C32.1431 30.5 32.8136 30.3438 33.359 30.0312C33.9102 29.7188 34.3249 29.3153 34.6033 28.821C34.8874 28.3267 35.0295 27.8068 35.0295 27.2614V25.4205C34.9442 25.5227 34.7567 25.6165 34.467 25.7017C34.1829 25.7812 33.8533 25.8523 33.4783 25.9148C33.109 25.9716 32.7482 26.0227 32.396 26.0682C32.0494 26.108 31.7681 26.142 31.5522 26.1705C31.0295 26.2386 30.5408 26.3494 30.0863 26.5028C29.6374 26.6506 29.2738 26.875 28.9954 27.1761C28.7227 27.4716 28.5863 27.875 28.5863 28.3864C28.5863 29.0852 28.8448 29.6136 29.3619 29.9716C29.8846 30.3239 30.5465 30.5 31.3477 30.5Z" fill="#1F2021"/>
</svg>
