<svg width="36" height="40" viewBox="0 0 36 40" fill="none" xmlns="http://www.w3.org/2000/svg">
<path d="M36 22.061C36 31.9687 27.9411 40.0005 18 40.0005C8.05887 40.0005 0 31.9687 0 22.061C0 12.1533 9.72973 1.69727 18 1.69727C26.2703 1.69727 36 12.1533 36 22.061Z" fill="url(#paint0_linear_1010_12223)"/>
<path d="M12.5827 9.20115C13.1559 14.0269 10.4886 10.2204 7.65624 10.5545C4.82388 10.8887 3.01053 15.2238 2.43736 10.3981C1.86419 5.57234 4.23184 1.83994 6.58815 1.56195C8.94446 1.28396 12.0096 4.37542 12.5827 9.20115Z" fill="#454444"/>
<path d="M33.3562 10.3702C32.2572 15.1046 31.0395 10.6231 28.2608 9.98241C25.482 9.34171 22.3039 12.8096 23.4028 8.07526C24.5018 3.34089 27.997 0.627074 30.3087 1.16009C32.6204 1.6931 34.4552 5.63584 33.3562 10.3702Z" fill="#454444"/>
<path d="M32.1079 19.7185C32.1079 23.4673 25.7915 29.1733 17.9998 29.1733C10.2081 29.1733 3.89172 23.4673 3.89172 19.7185C3.89172 15.9696 10.2081 17.537 17.9998 17.537C25.7915 17.537 32.1079 15.9696 32.1079 19.7185Z" fill="#454444"/>
<path d="M23.8377 31.8447C23.8377 32.2464 21.1151 34.0266 17.7566 34.0266C14.3981 34.0266 11.6755 32.2464 11.6755 31.8447C11.6755 31.2014 14.3981 32.572 17.7566 32.572C21.1151 32.572 23.8377 31.0307 23.8377 31.8447Z" fill="#454444"/>
<path d="M11.1892 21.7205C11.1892 21.3727 11.4721 21.0908 11.821 21.0908H12.9898C13.3388 21.0908 13.6216 21.3727 13.6216 21.7205V23.8551C13.6216 24.2029 13.3388 24.4848 12.9898 24.4848H11.821C11.4721 24.4848 11.1892 24.2029 11.1892 23.8551V21.7205Z" fill="#0A84FF"/>
<path d="M23.351 21.7205C23.351 21.3727 23.6338 21.0908 23.9828 21.0908H25.1516C25.5005 21.0908 25.7834 21.3727 25.7834 21.7205V23.8551C25.7834 24.2029 25.5005 24.4848 25.1516 24.4848H23.9828C23.6338 24.4848 23.351 24.2029 23.351 23.8551V21.7205Z" fill="#0A84FF"/>
<defs>
<linearGradient id="paint0_linear_1010_12223" x1="36" y1="37.5763" x2="2.80372" y2="-0.83764" gradientUnits="userSpaceOnUse">
<stop stop-color="#CECECE"/>
<stop offset="1" stop-color="#F5F2F2"/>
</linearGradient>
</defs>
</svg>
