<svg width="54" height="54" viewBox="0 0 54 54" fill="none" xmlns="http://www.w3.org/2000/svg">
<path d="M26.92 0.333496C12.2 0.333496 0.253296 12.2802 0.253296 27.0002C0.253296 41.7202 12.2 53.6668 26.92 53.6668C41.64 53.6668 53.5866 41.7202 53.5866 27.0002C53.5866 12.2802 41.6666 0.333496 26.92 0.333496ZM23.5866 35.0802C23.5866 36.3602 23.0533 36.8668 21.6933 36.8668H18.2266C16.8666 36.8668 16.3333 36.3602 16.3333 35.0802V18.9202C16.3333 17.6402 16.8666 17.1335 18.2266 17.1335H21.6666C23.0266 17.1335 23.56 17.6402 23.56 18.9202V35.0802H23.5866ZM37.6666 35.0802C37.6666 36.3602 37.1333 36.8668 35.7733 36.8668H32.3333C30.9733 36.8668 30.44 36.3602 30.44 35.0802V18.9202C30.44 17.6402 30.9733 17.1335 32.3333 17.1335H35.7733C37.1333 17.1335 37.6666 17.6402 37.6666 18.9202V35.0802Z" fill="#292D32"/>
</svg>
