<svg width="153" height="236" viewBox="0 0 153 236" fill="none" xmlns="http://www.w3.org/2000/svg">
<path fill-rule="evenodd" clip-rule="evenodd" d="M0 124.477C4.08294e-06 166.914 34.2502 201.315 76.5 201.315C118.75 201.315 153 166.914 153 124.477H0Z" fill="#E8E8E8"/>
<path d="M153 124.478C153 132.965 118.75 139.846 76.5 139.846C34.2502 139.846 0 132.965 0 124.478C0 115.991 34.2502 109.111 76.5 109.111C118.75 109.111 153 115.991 153 124.478Z" fill="url(#paint0_linear_975_6574)"/>
<path d="M133.11 123.709C133.11 129.225 107.765 133.697 76.4999 133.697C45.2351 133.697 19.8899 129.225 19.8899 123.709C19.8899 118.192 45.2351 113.72 76.4999 113.72C107.765 113.72 133.11 118.192 133.11 123.709Z" fill="url(#paint1_linear_975_6574)"/>
<path d="M133.11 69.9219C133.11 101.325 107.765 126.782 76.4999 126.782C45.2351 126.782 19.8899 101.325 19.8899 69.9219C19.8899 38.5189 50.4899 5.37793 76.4999 5.37793C102.51 5.37793 133.11 38.5189 133.11 69.9219Z" fill="url(#paint2_linear_975_6574)"/>
<path d="M59.4619 29.1623C61.2645 44.4577 52.8758 32.3927 43.968 33.4519C35.0603 34.511 29.3573 48.2514 27.5547 32.956C25.752 17.6606 33.1983 5.83059 40.6089 4.94948C48.0195 4.06838 57.6593 13.8669 59.4619 29.1623Z" fill="#454444"/>
<path d="M124.795 32.8689C121.339 47.8748 117.509 33.6705 108.77 31.6398C100.031 29.609 90.0353 40.6008 93.4916 25.5949C96.948 10.5891 107.94 1.98754 115.211 3.67695C122.481 5.36636 128.251 17.8631 124.795 32.8689Z" fill="#454444"/>
<path d="M120.87 62.4994C120.87 74.3817 101.005 92.467 76.4999 92.467C51.995 92.467 32.1299 74.3817 32.1299 62.4994C32.1299 50.6172 51.995 55.585 76.4999 55.585C101.005 55.585 120.87 50.6172 120.87 62.4994Z" fill="#454444"/>
<path d="M94.8601 100.932C94.8601 102.205 86.2976 107.848 75.7351 107.848C65.1727 107.848 56.6101 102.205 56.6101 100.932C56.6101 98.8933 65.1727 103.238 75.7351 103.238C86.2976 103.238 94.8601 98.3523 94.8601 100.932Z" fill="#454444"/>
<path d="M55.0801 68.8448C55.0801 67.7425 55.9697 66.849 57.0671 66.849H60.7431C61.8405 66.849 62.7301 67.7425 62.7301 68.8448V75.6105C62.7301 76.7128 61.8405 77.6063 60.7431 77.6063H57.0671C55.9697 77.6063 55.0801 76.7128 55.0801 75.6105V68.8448Z" fill="#0A84FF"/>
<path d="M93.3301 68.8448C93.3301 67.7425 94.2197 66.849 95.3171 66.849H98.9931C100.09 66.849 100.98 67.7425 100.98 68.8448V75.6105C100.98 76.7128 100.09 77.6063 98.9931 77.6063H95.3171C94.2197 77.6063 93.3301 76.7128 93.3301 75.6105V68.8448Z" fill="#0A84FF"/>
<g style="mix-blend-mode:darken">
<path d="M130.855 227.487C130.855 231.934 106.52 235.539 76.5 235.539C46.4805 235.539 22.1448 231.934 22.1448 227.487C22.1448 223.039 46.4805 219.434 76.5 219.434C106.52 219.434 130.855 223.039 130.855 227.487Z" fill="#D2D1D1" fill-opacity="0.5"/>
</g>
<defs>
<linearGradient id="paint0_linear_975_6574" x1="156.06" y1="114.489" x2="-10.7305" y2="134.294" gradientUnits="userSpaceOnUse">
<stop stop-color="#B7B7B7"/>
<stop offset="1" stop-color="#E1DFDF"/>
</linearGradient>
<linearGradient id="paint1_linear_975_6574" x1="28.1927" y1="110.646" x2="138.676" y2="141.124" gradientUnits="userSpaceOnUse">
<stop offset="0.370804" stop-color="#B9B9B9"/>
<stop offset="1" stop-color="white"/>
</linearGradient>
<linearGradient id="paint2_linear_975_6574" x1="133.11" y1="119.098" x2="27.777" y2="-1.84614" gradientUnits="userSpaceOnUse">
<stop stop-color="#CECECE"/>
<stop offset="1" stop-color="#F5F2F2"/>
</linearGradient>
</defs>
</svg>
