<svg width="124" height="124" viewBox="0 0 124 124" fill="none" xmlns="http://www.w3.org/2000/svg">
<path d="M62 10.3333C33.5317 10.3333 10.3334 33.5316 10.3334 61.9999C10.3334 90.4683 33.5317 113.667 62 113.667C90.4684 113.667 113.667 90.4683 113.667 61.9999C113.667 33.5316 90.4684 10.3333 62 10.3333ZM86.6967 50.1166L57.4017 79.4116C56.6784 80.1349 55.6967 80.5482 54.6634 80.5482C53.63 80.5482 52.6484 80.1349 51.925 79.4116L37.3034 64.7899C35.805 63.2916 35.805 60.8116 37.3034 59.3132C38.8017 57.8149 41.2817 57.8149 42.78 59.3132L54.6634 71.1966L81.22 44.6399C82.7184 43.1416 85.1984 43.1416 86.6967 44.6399C88.195 46.1383 88.195 48.5666 86.6967 50.1166Z" fill="#67E1AD"/>
</svg>
