<svg width="387" height="176" viewBox="0 0 387 176" fill="none" xmlns="http://www.w3.org/2000/svg">
<path d="M193 60.3333C164.532 60.3333 141.333 83.5316 141.333 112C141.333 140.468 164.532 163.667 193 163.667C221.468 163.667 244.667 140.468 244.667 112C244.667 83.5316 221.468 60.3333 193 60.3333ZM217.697 100.117L188.402 129.412C187.678 130.135 186.697 130.548 185.663 130.548C184.63 130.548 183.648 130.135 182.925 129.412L168.303 114.79C166.805 113.292 166.805 110.812 168.303 109.313C169.802 107.815 172.282 107.815 173.78 109.313L185.663 121.197L212.22 94.6399C213.718 93.1416 216.198 93.1416 217.697 94.6399C219.195 96.1383 219.195 98.5666 217.697 100.117Z" fill="#67E1AD"/>
<path d="M70.3942 45.3098C70.3942 45.3098 74.8544 41.5269 79.3386 40.2346C83.8228 38.9424 89.6121 39.7718 89.6121 39.7718L92.2704 48.9964C92.2704 48.9964 84.5592 48.7209 81.9969 49.4593C79.4345 50.1977 73.0524 54.5344 73.0524 54.5344L70.3942 45.3098Z" fill="#707DF7"/>
<path d="M89.5318 74.315C89.5318 74.315 95.3093 73.4066 99.8108 74.6373C104.312 75.8681 108.824 79.5897 108.824 79.5897L106.292 88.8498C106.292 88.8498 99.8512 84.6007 97.2789 83.8974C94.7067 83.1942 87 83.5752 87 83.5752L89.5318 74.315Z" fill="#5FFBB8"/>
<path d="M307.871 18.3408C307.871 18.3408 313.056 21.0466 315.943 24.7133C318.829 28.3799 320.243 34.055 320.243 34.055L312.7 39.9935C312.7 39.9935 310.049 32.747 308.4 30.6518C306.75 28.5566 300.328 24.2794 300.328 24.2794L307.871 18.3408Z" fill="#707DF7"/>
<path d="M287.325 87.51C287.325 87.51 291.914 83.8844 296.44 82.7489C300.967 81.6134 306.724 82.6436 306.724 82.6436L309.06 91.955C309.06 91.955 301.363 91.4115 298.776 92.0604C296.19 92.7092 289.661 96.8215 289.661 96.8215L287.325 87.51Z" fill="#F7F170"/>
<path d="M361.322 65.0739C361.322 65.0739 367.169 64.917 371.474 66.7173C375.779 68.5175 379.774 72.7891 379.774 72.7891L376.071 81.6461C376.071 81.6461 370.231 76.6029 367.771 75.5742C365.31 74.5455 357.619 73.9308 357.619 73.9308L361.322 65.0739Z" fill="#F7F170"/>
<path d="M362.587 131.575C362.587 131.575 357.488 128.712 354.715 124.958C351.942 121.205 350.703 115.489 350.703 115.489L358.424 109.785C358.424 109.785 360.851 117.109 362.436 119.254C364.021 121.399 370.309 125.871 370.309 125.871L362.587 131.575Z" fill="#707DF7"/>
<path d="M330.309 171.098C330.309 171.098 324.461 171.019 320.232 169.046C316.002 167.073 312.184 162.643 312.184 162.643L316.242 153.943C316.242 153.943 321.873 159.219 324.29 160.346C326.707 161.473 334.367 162.399 334.367 162.399L330.309 171.098Z" fill="#5FFBB8"/>
<path d="M142.139 38.1551C142.139 38.1551 136.291 38.0754 132.062 36.1025C127.833 34.1296 124.015 29.6999 124.015 29.6999L128.073 21C128.073 21 133.704 26.2752 136.121 27.4026C138.537 28.5299 146.198 29.4552 146.198 29.4552L142.139 38.1551Z" fill="#5FFBB8"/>
<path d="M384.693 21.1654C384.693 21.1654 378.991 22.4671 374.416 21.5474C369.841 20.6276 365.086 17.2235 365.086 17.2235L366.978 7.81182C366.978 7.81182 373.694 11.6101 376.308 12.1357C378.923 12.6613 386.585 11.7537 386.585 11.7537L384.693 21.1654Z" fill="#5FFBB8"/>
<path d="M274.904 157.93C274.904 157.93 273.497 163.607 270.614 167.277C267.731 170.947 262.549 173.658 262.549 173.658L255 167.728C255 167.728 261.417 163.443 263.065 161.346C264.712 159.249 267.355 152 267.355 152L274.904 157.93Z" fill="#F770A8"/>
<path d="M60.0084 132.519C60.0084 132.519 56.7106 137.349 52.7294 139.784C48.7482 142.218 42.9461 142.954 42.9461 142.954L37.9375 134.764C37.9375 134.764 45.4458 132.985 47.7208 131.594C49.9958 130.203 54.9998 124.329 54.9998 124.329L60.0084 132.519Z" fill="#F7F170"/>
<path d="M31.8845 72.2428C31.8845 72.2428 26.728 75.0023 22.0723 75.3218C17.4166 75.6413 11.9314 73.612 11.9314 73.612L11.2742 64.0345C11.2742 64.0345 18.7547 65.9269 21.4151 65.7443C24.0755 65.5618 31.2273 62.6654 31.2273 62.6654L31.8845 72.2428Z" fill="#F770A8"/>
<path d="M19.1773 18.847C19.1773 18.847 13.3638 18.2087 9.34261 15.8406C5.32141 13.4726 1.9436 8.69817 1.9436 8.69817L6.81504 0.425978C6.81504 0.425978 11.9162 6.21526 14.214 7.56844C16.5119 8.92161 24.0488 10.5748 24.0488 10.5748L19.1773 18.847Z" fill="#F7F170"/>
</svg>
