<svg width="28" height="28" viewBox="0 0 28 28" fill="none" xmlns="http://www.w3.org/2000/svg">
<path d="M13.4166 25.3752C6.82492 25.3752 1.45825 20.0085 1.45825 13.4168C1.45825 6.82516 6.82492 1.4585 13.4166 1.4585C20.0083 1.4585 25.3749 6.82516 25.3749 13.4168C25.3749 20.0085 20.0083 25.3752 13.4166 25.3752ZM13.4166 3.2085C7.78159 3.2085 3.20825 7.7935 3.20825 13.4168C3.20825 19.0402 7.78159 23.6252 13.4166 23.6252C19.0516 23.6252 23.6249 19.0402 23.6249 13.4168C23.6249 7.7935 19.0516 3.2085 13.4166 3.2085Z" fill="#8A8E99"/>
<path d="M25.6666 26.5418C25.4449 26.5418 25.2233 26.4602 25.0483 26.2852L22.7149 23.9518C22.3766 23.6135 22.3766 23.0535 22.7149 22.7152C23.0533 22.3768 23.6133 22.3768 23.9516 22.7152L26.2849 25.0485C26.6233 25.3868 26.6233 25.9468 26.2849 26.2852C26.1099 26.4602 25.8883 26.5418 25.6666 26.5418Z" fill="#8A8E99"/>
</svg>
