<svg width="40" height="40" viewBox="0 0 40 40" fill="none" xmlns="http://www.w3.org/2000/svg">
<path d="M19.95 3.33325C10.75 3.33325 3.28333 10.7999 3.28333 19.9999C3.28333 29.1999 10.75 36.6666 19.95 36.6666C29.15 36.6666 36.6167 29.1999 36.6167 19.9999C36.6167 10.7999 29.1667 3.33325 19.95 3.33325ZM17.8667 25.0499C17.8667 25.8499 17.5333 26.1666 16.6833 26.1666H14.5167C13.6667 26.1666 13.3333 25.8499 13.3333 25.0499V14.9499C13.3333 14.1499 13.6667 13.8333 14.5167 13.8333H16.6667C17.5167 13.8333 17.85 14.1499 17.85 14.9499V25.0499H17.8667ZM26.6667 25.0499C26.6667 25.8499 26.3333 26.1666 25.4833 26.1666H23.3333C22.4833 26.1666 22.15 25.8499 22.15 25.0499V14.9499C22.15 14.1499 22.4833 13.8333 23.3333 13.8333H25.4833C26.3333 13.8333 26.6667 14.1499 26.6667 14.9499V25.0499Z" fill="#0A84FF"/>
</svg>
