<svg width="127" height="41" viewBox="0 0 127 41" fill="none" xmlns="http://www.w3.org/2000/svg">
<rect x="10.9602" y="3.81216" width="5.05263" height="32.8421" rx="2.52632" fill="#0A84FF"/>
<rect x="0.85498" y="15.1806" width="5.05263" height="10.1053" rx="2.52632" fill="#0A84FF"/>
<rect x="91.855" y="2.02271" width="5" height="36" rx="2.5" fill="#EDEDED"/>
<rect x="121.855" y="16.0227" width="5" height="8" rx="2.5" fill="#EDEDED"/>
<rect x="21.0656" y="10.128" width="5.05263" height="20.2105" rx="2.52632" fill="#0A84FF"/>
<rect x="31.1708" y="6.3385" width="5.05263" height="27.7895" rx="2.52632" fill="#0A84FF"/>
<rect x="41.276" y="0.0227051" width="5.05263" height="40.4211" rx="2.52632" fill="#0A84FF"/>
<rect x="51.3813" y="6.3385" width="5.05263" height="27.7895" rx="2.52632" fill="#EDEDED"/>
<rect x="61.4866" y="3.81216" width="5.05263" height="32.8421" rx="2.52632" fill="#EDEDED"/>
<rect x="71.5918" y="12.6543" width="5.05263" height="15.1579" rx="2.52632" fill="#EDEDED"/>
<rect x="101.855" y="9.02271" width="5" height="22" rx="2.5" fill="#EDEDED"/>
<rect x="81.697" y="6.3385" width="5.05263" height="27.7895" rx="2.52632" fill="#EDEDED"/>
<rect x="111.855" y="6.02271" width="5" height="28" rx="2.5" fill="#EDEDED"/>
</svg>
