<svg width="32" height="32" viewBox="0 0 32 32" fill="none" xmlns="http://www.w3.org/2000/svg">
<path d="M27.9999 8.97314C27.9732 8.97314 27.9332 8.97314 27.8932 8.97314C20.8399 8.26647 13.7999 7.99981 6.82655 8.70647L4.10655 8.97314C3.54655 9.02647 3.05322 8.62647 2.99989 8.06647C2.94655 7.50647 3.34655 7.02647 3.89322 6.97314L6.61322 6.70647C13.7066 5.98647 20.8932 6.26647 28.0932 6.97314C28.6399 7.02647 29.0399 7.51981 28.9866 8.06647C28.9466 8.58647 28.5066 8.97314 27.9999 8.97314Z" fill="#292D32"/>
<path d="M11.3333 7.6265C11.2799 7.6265 11.2266 7.6265 11.1599 7.61317C10.6266 7.51984 10.2533 6.99984 10.3466 6.4665L10.6399 4.71984C10.8533 3.43984 11.1466 1.6665 14.2533 1.6665H17.7466C20.8666 1.6665 21.1599 3.5065 21.3599 4.73317L21.6533 6.4665C21.7466 7.01317 21.3733 7.53317 20.8399 7.61317C20.2933 7.7065 19.7733 7.33317 19.6933 6.79984L19.3999 5.0665C19.2133 3.9065 19.1733 3.67984 17.7599 3.67984H14.2666C12.8533 3.67984 12.8266 3.8665 12.6266 5.05317L12.3199 6.7865C12.2399 7.27984 11.8133 7.6265 11.3333 7.6265Z" fill="#292D32"/>
<path d="M20.2799 30.3334H11.7199C7.06661 30.3334 6.87995 27.7601 6.73328 25.6801L5.86661 12.2534C5.82661 11.7068 6.25328 11.2268 6.79995 11.1868C7.35995 11.1601 7.82661 11.5734 7.86661 12.1201L8.73328 25.5468C8.87995 27.5734 8.93328 28.3334 11.7199 28.3334H20.2799C23.0799 28.3334 23.1333 27.5734 23.2666 25.5468L24.1333 12.1201C24.1733 11.5734 24.6533 11.1601 25.1999 11.1868C25.7466 11.2268 26.1733 11.6934 26.1333 12.2534L25.2666 25.6801C25.1199 27.7601 24.9333 30.3334 20.2799 30.3334Z" fill="#292D32"/>
<path d="M18.2134 23H13.7734C13.2268 23 12.7734 22.5467 12.7734 22C12.7734 21.4533 13.2268 21 13.7734 21H18.2134C18.7601 21 19.2134 21.4533 19.2134 22C19.2134 22.5467 18.7601 23 18.2134 23Z" fill="#292D32"/>
<path d="M19.3334 17.6665H12.6667C12.1201 17.6665 11.6667 17.2132 11.6667 16.6665C11.6667 16.1198 12.1201 15.6665 12.6667 15.6665H19.3334C19.8801 15.6665 20.3334 16.1198 20.3334 16.6665C20.3334 17.2132 19.8801 17.6665 19.3334 17.6665Z" fill="#292D32"/>
</svg>
