<svg width="32" height="32" viewBox="0 0 32 32" fill="none" xmlns="http://www.w3.org/2000/svg">
<path d="M27.6875 16.6879C27.6875 16.7576 27.7012 16.8267 27.7279 16.8911C27.7546 16.9555 27.7937 17.0141 27.843 17.0634C27.8923 17.1127 27.9509 17.1518 28.0153 17.1785C28.0797 17.2052 28.1488 17.2189 28.2185 17.2189C28.2882 17.2189 28.3573 17.2052 28.4217 17.1785C28.4861 17.1518 28.5447 17.1127 28.594 17.0634C28.6433 17.0141 28.6824 16.9555 28.7091 16.8911C28.7358 16.8267 28.7495 16.7576 28.7495 16.6879C28.7495 16.5471 28.6936 16.412 28.594 16.3124C28.4944 16.2129 28.3593 16.1569 28.2185 16.1569C28.0777 16.1569 27.9426 16.2129 27.843 16.3124C27.7435 16.412 27.6875 16.5471 27.6875 16.6879ZM13.1915 12.8789C14.0055 13.0859 14.9355 13.2189 15.9685 13.2189C17.0035 13.2189 17.9345 13.0849 18.7495 12.8789L20.9045 17.3529C19.5095 17.8489 17.8285 18.2189 15.9685 18.2189C14.1105 18.2189 12.4305 17.8489 11.0365 17.3549L13.1915 12.8789Z" fill="#211F1F"/>
<path d="M26.4447 13.745C27.4971 13.6111 28.5595 13.9007 29.3984 14.5501C30.2372 15.1996 30.7838 16.1556 30.9177 17.208C31.0516 18.2604 30.762 19.3229 30.1126 20.1617C29.4631 21.0006 28.5071 21.5471 27.4547 21.681V22.719C27.4547 23.1168 27.2967 23.4984 27.0153 23.7797C26.734 24.061 26.3525 24.219 25.9547 24.219H20.9687C20.5709 24.219 20.1893 24.061 19.908 23.7797C19.6267 23.4984 19.4687 23.1168 19.4687 22.719V21.196H12.4867V22.719C12.4867 23.1168 12.3287 23.4984 12.0473 23.7797C11.766 24.061 11.3845 24.219 10.9867 24.219H5.99969C5.60186 24.219 5.22033 24.061 4.93903 23.7797C4.65772 23.4984 4.49969 23.1168 4.49969 22.719V21.696H3.26168C2.84168 21.696 2.31768 21.439 2.09468 20.939C1.96469 20.651 1.98468 20.343 2.05968 20.096C2.13686 19.8388 2.2836 19.608 2.48368 19.429C2.59669 19.329 3.12368 18.828 3.63668 18.336L4.31668 17.683L4.55668 17.453C5.04869 11.512 9.97369 7 16.0627 7C20.7907 7 24.7077 9.738 26.4447 13.745ZM26.8147 14.72C27.2106 15.9301 27.4108 17.1957 27.4077 18.469C27.4077 18.931 27.4197 19.385 27.4317 19.839L27.4417 20.219H27.4547V20.669C28.1992 20.5322 28.8644 20.119 29.3171 19.5123C29.7697 18.9055 29.9762 18.1501 29.8953 17.3975C29.8143 16.6449 29.4518 15.9507 28.8805 15.4541C28.3092 14.9576 27.5712 14.6953 26.8147 14.72ZM21.6147 10.365C21.0447 10.936 19.0387 12.219 15.9687 12.219C12.8987 12.219 10.8927 10.936 10.3227 10.365C10.2288 10.2711 10.1015 10.2184 9.96869 10.2184C9.83591 10.2184 9.70857 10.2711 9.61469 10.365C9.5208 10.4589 9.46805 10.5862 9.46805 10.719C9.46805 10.8518 9.5208 10.9791 9.61469 11.073C10.0417 11.499 10.9357 12.119 12.2247 12.583L10.1027 16.989C8.77669 16.418 7.79769 15.771 7.29369 15.339C7.24378 15.2963 7.18596 15.2639 7.12353 15.2436C7.06109 15.2232 6.99526 15.2154 6.92979 15.2205C6.86433 15.2256 6.80051 15.2435 6.74198 15.2733C6.68346 15.3031 6.63136 15.3441 6.58869 15.394C6.54601 15.4439 6.51357 15.5017 6.49324 15.5642C6.4729 15.6266 6.46507 15.6924 6.47017 15.7579C6.47528 15.8234 6.49323 15.8872 6.523 15.9457C6.55278 16.0042 6.59378 16.0563 6.64368 16.099C7.88468 17.163 11.4307 19.219 15.9687 19.219C20.5077 19.219 24.0527 17.163 25.2937 16.099C25.3436 16.0563 25.3846 16.0042 25.4144 15.9457C25.4441 15.8872 25.4621 15.8234 25.4672 15.7579C25.4723 15.6924 25.4645 15.6266 25.4441 15.5642C25.4238 15.5017 25.3914 15.4439 25.3487 15.394C25.306 15.3441 25.2539 15.3031 25.1954 15.2733C25.1369 15.2435 25.073 15.2256 25.0076 15.2205C24.9421 15.2154 24.8763 15.2232 24.8138 15.2436C24.7514 15.2639 24.6936 15.2963 24.6437 15.339C24.1397 15.771 23.1637 16.416 21.8387 16.987L19.7177 12.582C21.0037 12.118 21.8967 11.498 22.3227 11.072C22.4164 10.9781 22.4691 10.8508 22.469 10.7181C22.4689 10.5855 22.4161 10.4583 22.3222 10.3645C22.2283 10.2707 22.101 10.2181 21.9683 10.2182C21.8357 10.2183 21.7084 10.2711 21.6147 10.365ZM4.46469 20.695V18.929L4.32869 19.059C3.82869 19.539 3.27769 20.063 3.14169 20.182C3.08272 20.2378 3.03959 20.3081 3.01669 20.386C2.98969 20.474 3.00368 20.523 3.00669 20.531C3.03158 20.5808 3.07097 20.622 3.11968 20.649C3.16238 20.6764 3.21114 20.6929 3.26168 20.697H4.46469V20.695ZM26.4547 21.219H20.4687V22.719C20.4687 22.8516 20.5214 22.9788 20.6151 23.0726C20.7089 23.1663 20.8361 23.219 20.9687 23.219H25.9547C26.0873 23.219 26.2145 23.1663 26.3082 23.0726C26.402 22.9788 26.4547 22.8516 26.4547 22.719V21.219ZM11.4867 21.219H5.49969V22.719C5.49969 22.8516 5.55236 22.9788 5.64613 23.0726C5.7399 23.1663 5.86708 23.219 5.99969 23.219H10.9867C11.1193 23.219 11.2465 23.1663 11.3402 23.0726C11.434 22.9788 11.4867 22.8516 11.4867 22.719V21.219Z" fill="#211F1F"/>
</svg>
