<svg width="20" height="20" viewBox="0 0 20 20" fill="none" xmlns="http://www.w3.org/2000/svg">
<path d="M5 12.4085C4.65833 12.4085 4.375 12.1252 4.375 11.7835V8.2085C4.375 7.86683 4.65833 7.5835 5 7.5835C5.34167 7.5835 5.625 7.86683 5.625 8.2085V11.7835C5.625 12.1335 5.34167 12.4085 5 12.4085Z" fill="#211F1F"/>
<path d="M7.5 13.5999C7.15833 13.5999 6.875 13.3166 6.875 12.9749V7.0249C6.875 6.68324 7.15833 6.3999 7.5 6.3999C7.84167 6.3999 8.125 6.68324 8.125 7.0249V12.9749C8.125 13.3249 7.84167 13.5999 7.5 13.5999Z" fill="#211F1F"/>
<path d="M10 14.7918C9.65833 14.7918 9.375 14.5085 9.375 14.1668V5.8335C9.375 5.49183 9.65833 5.2085 10 5.2085C10.3417 5.2085 10.625 5.49183 10.625 5.8335V14.1668C10.625 14.5085 10.3417 14.7918 10 14.7918Z" fill="#211F1F"/>
<path d="M12.5 13.5999C12.1583 13.5999 11.875 13.3166 11.875 12.9749V7.0249C11.875 6.68324 12.1583 6.3999 12.5 6.3999C12.8417 6.3999 13.125 6.68324 13.125 7.0249V12.9749C13.125 13.3249 12.8417 13.5999 12.5 13.5999Z" fill="#211F1F"/>
<path d="M15 12.4085C14.6583 12.4085 14.375 12.1252 14.375 11.7835V8.2085C14.375 7.86683 14.6583 7.5835 15 7.5835C15.3417 7.5835 15.625 7.86683 15.625 8.2085V11.7835C15.625 12.1335 15.3417 12.4085 15 12.4085Z" fill="#211F1F"/>
<path d="M9.99984 18.9582C5.05817 18.9582 1.0415 14.9415 1.0415 9.99984C1.0415 5.05817 5.05817 1.0415 9.99984 1.0415C14.9415 1.0415 18.9582 5.05817 18.9582 9.99984C18.9582 14.9415 14.9415 18.9582 9.99984 18.9582ZM9.99984 2.2915C5.74984 2.2915 2.2915 5.74984 2.2915 9.99984C2.2915 14.2498 5.74984 17.7082 9.99984 17.7082C14.2498 17.7082 17.7082 14.2498 17.7082 9.99984C17.7082 5.74984 14.2498 2.2915 9.99984 2.2915Z" fill="#211F1F"/>
</svg>
