<svg width="20" height="20" viewBox="0 0 20 20" fill="none" xmlns="http://www.w3.org/2000/svg">
<path d="M10.4582 17.1583C9.79984 17.1583 9.07484 16.925 8.34984 16.4667L5.9165 14.9417C5.74984 14.8417 5.55817 14.7833 5.3665 14.7833H4.1665C2.14984 14.7833 1.0415 13.675 1.0415 11.6583V8.32501C1.0415 6.30834 2.14984 5.20001 4.1665 5.20001H5.35817C5.54984 5.20001 5.7415 5.14167 5.90817 5.04167L8.3415 3.51667C9.55817 2.75834 10.7415 2.61667 11.6748 3.13334C12.6082 3.65001 13.1165 4.72501 13.1165 6.16667V13.8083C13.1165 15.2417 12.5998 16.325 11.6748 16.8417C11.3082 17.0583 10.8915 17.1583 10.4582 17.1583ZM4.1665 6.45834C2.84984 6.45834 2.2915 7.01667 2.2915 8.33334V11.6667C2.2915 12.9833 2.84984 13.5417 4.1665 13.5417H5.35817C5.7915 13.5417 6.20817 13.6583 6.57484 13.8917L9.00817 15.4167C9.80817 15.9167 10.5665 16.05 11.0748 15.7667C11.5832 15.4833 11.8748 14.775 11.8748 13.8333V6.17501C11.8748 5.22501 11.5832 4.51667 11.0748 4.24167C10.5665 3.95834 9.80817 4.08334 9.00817 4.59167L6.5665 6.10834C6.20817 6.34167 5.78317 6.45834 5.35817 6.45834H4.1665Z" fill="#211F1F"/>
<path d="M15.0002 13.9584C14.8669 13.9584 14.7419 13.9167 14.6252 13.8334C14.3502 13.6251 14.2919 13.2334 14.5002 12.9584C15.8086 11.2167 15.8086 8.7834 14.5002 7.04173C14.2919 6.76673 14.3502 6.37506 14.6252 6.16673C14.9002 5.9584 15.2919 6.01673 15.5002 6.29173C17.1336 8.47506 17.1336 11.5251 15.5002 13.7084C15.3752 13.8751 15.1919 13.9584 15.0002 13.9584Z" fill="#211F1F"/>
<path d="M16.5251 16.0416C16.3918 16.0416 16.2668 15.9999 16.1501 15.9166C15.8751 15.7082 15.8168 15.3166 16.0251 15.0416C18.2501 12.0749 18.2501 7.9249 16.0251 4.95823C15.8168 4.68323 15.8751 4.29157 16.1501 4.08324C16.4251 3.8749 16.8168 3.93324 17.0251 4.20824C19.5835 7.61657 19.5835 12.3832 17.0251 15.7916C16.9085 15.9582 16.7168 16.0416 16.5251 16.0416Z" fill="#211F1F"/>
</svg>
