<svg width="253" height="55" viewBox="0 0 253 55" fill="none" xmlns="http://www.w3.org/2000/svg">
<path d="M64.4023 19.4515C64.4023 16.8584 66.5044 14.7563 69.0975 14.7563C71.6905 14.7563 73.7926 16.8584 73.7926 19.4515V50.3051C73.7926 52.8982 71.6905 55.0002 69.0975 55.0002C66.5044 55.0002 64.4023 52.8982 64.4023 50.3051V19.4515Z" fill="white"/>
<path d="M49.6465 26.1585C49.6465 23.5655 51.7486 21.4634 54.3416 21.4634C56.9346 21.4634 59.0367 23.5655 59.0367 26.1585V43.5975C59.0367 46.1906 56.9346 48.2926 54.3416 48.2926C51.7486 48.2926 49.6465 46.1906 49.6465 43.5975V26.1585Z" fill="white"/>
<path d="M64.4023 4.69512C64.4023 2.10208 66.5044 0 69.0975 0C71.6905 0 73.7926 2.10208 73.7926 4.69512C73.7926 7.28817 71.6905 9.39024 69.0975 9.39024C66.5044 9.39024 64.4023 7.28817 64.4023 4.69512Z" fill="white"/>
<path d="M79.1587 26.1585C79.1587 23.5655 81.2608 21.4634 83.8538 21.4634C86.4469 21.4634 88.5489 23.5655 88.5489 26.1585V43.5975C88.5489 46.1906 86.4469 48.2926 83.8538 48.2926C81.2608 48.2926 79.1587 46.1906 79.1587 43.5975V26.1585Z" fill="white"/>
<path d="M8.84146 48.2929H0L13.4718 9.26855H24.1044L37.5572 48.2929H28.7157L18.9405 18.1862H18.6357L8.84146 48.2929ZM8.28887 32.9538H29.173V39.3943H8.28887V32.9538Z" fill="white"/>
<path d="M102.693 48.2929V43.3958L122.167 16.0711H102.655V9.26855H132.533V14.1657L113.04 41.4904H132.571V48.2929H102.693Z" fill="white"/>
<path d="M151.418 48.8646C148.407 48.8646 145.816 48.2548 143.643 47.0353C141.484 45.8031 139.82 44.0628 138.651 41.8143C137.482 39.5531 136.898 36.8791 136.898 33.7922C136.898 30.7815 137.482 28.1392 138.651 25.8654C139.82 23.5915 141.465 21.8194 143.586 20.549C145.72 19.2787 148.223 18.6436 151.094 18.6436C153.025 18.6436 154.822 18.9548 156.486 19.5772C158.163 20.187 159.624 21.108 160.869 22.3402C162.127 23.5724 163.105 25.1222 163.803 26.9896C164.502 28.8443 164.851 31.0165 164.851 33.5064V35.7358H140.137V30.7053H157.21C157.21 29.5366 156.956 28.5013 156.448 27.5993C155.94 26.6974 155.235 25.9924 154.333 25.4843C153.444 24.9634 152.409 24.703 151.227 24.703C149.995 24.703 148.902 24.9888 147.95 25.5605C147.01 26.1194 146.273 26.8753 145.739 27.828C145.206 28.768 144.933 29.8161 144.92 30.9721V35.7548C144.92 37.203 145.187 38.4543 145.72 39.5086C146.266 40.563 147.035 41.376 148.026 41.9477C149.017 42.5193 150.192 42.8051 151.551 42.8051C152.453 42.8051 153.279 42.6781 154.028 42.424C154.778 42.17 155.419 41.7889 155.953 41.2808C156.486 40.7726 156.893 40.1502 157.172 39.4134L164.68 39.9088C164.299 41.7127 163.518 43.2879 162.336 44.6344C161.167 45.9683 159.656 47.0099 157.801 47.7594C155.959 48.4962 153.831 48.8646 151.418 48.8646Z" fill="white"/>
<path d="M169.478 48.2929V19.0247H177.348V24.1314H177.652C178.186 22.3148 179.082 20.9428 180.339 20.0155C181.597 19.0755 183.045 18.6054 184.684 18.6054C185.09 18.6054 185.528 18.6309 185.998 18.6817C186.468 18.7325 186.881 18.8023 187.237 18.8913V26.094C186.856 25.9797 186.329 25.8781 185.655 25.7891C184.982 25.7002 184.366 25.6558 183.807 25.6558C182.613 25.6558 181.546 25.9162 180.606 26.437C179.679 26.9451 178.942 27.6565 178.396 28.5711C177.862 29.4858 177.595 30.5401 177.595 31.7343V48.2929H169.478Z" fill="white"/>
<path d="M202.739 48.8646C199.728 48.8646 197.137 48.2548 194.965 47.0353C192.805 45.8031 191.141 44.0628 189.972 41.8143C188.804 39.5531 188.219 36.8791 188.219 33.7922C188.219 30.7815 188.804 28.1392 189.972 25.8654C191.141 23.5915 192.786 21.8194 194.908 20.549C197.042 19.2787 199.544 18.6436 202.415 18.6436C204.346 18.6436 206.144 18.9548 207.808 19.5772C209.485 20.187 210.945 21.108 212.19 22.3402C213.448 23.5724 214.426 25.1222 215.125 26.9896C215.823 28.8443 216.173 31.0165 216.173 33.5064V35.7358H191.459V30.7053H208.532C208.532 29.5366 208.278 28.5013 207.77 27.5993C207.261 26.6974 206.556 25.9924 205.655 25.4843C204.765 24.9634 203.73 24.703 202.549 24.703C201.316 24.703 200.224 24.9888 199.271 25.5605C198.331 26.1194 197.594 26.8753 197.061 27.828C196.527 28.768 196.254 29.8161 196.241 30.9721V35.7548C196.241 37.203 196.508 38.4543 197.042 39.5086C197.588 40.563 198.356 41.376 199.347 41.9477C200.338 42.5193 201.513 42.8051 202.873 42.8051C203.774 42.8051 204.6 42.6781 205.35 42.424C206.099 42.17 206.741 41.7889 207.274 41.2808C207.808 40.7726 208.214 40.1502 208.494 39.4134L216.001 39.9088C215.62 41.7127 214.839 43.2879 213.658 44.6344C212.489 45.9683 210.977 47.0099 209.123 47.7594C207.281 48.4962 205.153 48.8646 202.739 48.8646Z" fill="white"/>
<path d="M239.128 1.09766H241.141V48.2928H239.128V1.09766Z" fill="white"/>
<path d="M228.061 2.19531V0.000190496L252.207 0.000190496V2.19531L228.061 2.19531Z" fill="white"/>
<path d="M228.061 48.2925V46.0974H252.207V48.2925H228.061Z" fill="white"/>
</svg>
