<svg width="139" height="34" viewBox="0 0 139 34" fill="none" xmlns="http://www.w3.org/2000/svg">
<path d="M17.3521 22.4728H7.33428L5.42319 27.0964H0.306396L9.92351 5.51953H14.8554L24.5033 27.0964H19.2632L17.3521 22.4728ZM15.7801 18.6814L12.3586 10.4206L8.93714 18.6814H15.7801Z" fill="white"/>
<path d="M68.7507 23.0277V27.0965H49.8864V23.86L61.7228 9.58844H50.133V5.51966H68.2883V8.75619L56.4827 23.0277H68.7507Z" fill="white"/>
<path d="M87.6478 18.8665C87.6478 18.9281 87.617 19.3597 87.5553 20.1611H75.0099C75.236 21.1886 75.7702 22.0003 76.6128 22.5962C77.4553 23.1921 78.5033 23.4901 79.7568 23.4901C80.6199 23.4901 81.3802 23.3668 82.0378 23.1202C82.7159 22.8531 83.3427 22.4421 83.9181 21.8872L86.4765 24.6614C84.9147 26.4492 82.6337 27.3431 79.6335 27.3431C77.7635 27.3431 76.1093 26.9835 74.6708 26.2643C73.2324 25.5245 72.1227 24.5073 71.3418 23.2127C70.561 21.9181 70.1705 20.4488 70.1705 18.8048C70.1705 17.1814 70.5507 15.7224 71.311 14.4278C72.0919 13.1127 73.1502 12.0955 74.4859 11.3762C75.8422 10.6365 77.3525 10.2666 79.017 10.2666C80.6404 10.2666 82.1097 10.6159 83.4249 11.3146C84.74 12.0133 85.7675 13.0202 86.5073 14.3353C87.2676 15.63 87.6478 17.1403 87.6478 18.8665ZM79.0479 13.9038C77.9587 13.9038 77.0443 14.2121 76.3045 14.8285C75.5647 15.445 75.1127 16.2875 74.9483 17.3561H83.1166C82.9522 16.3081 82.5002 15.4758 81.7604 14.8594C81.0206 14.2223 80.1164 13.9038 79.0479 13.9038Z" fill="white"/>
<path d="M95.4419 12.7017C96.0173 11.9002 96.7879 11.294 97.7537 10.8831C98.7401 10.4721 99.8703 10.2666 101.144 10.2666V14.7052C100.61 14.6641 100.25 14.6436 100.066 14.6436C98.6887 14.6436 97.6099 15.034 96.829 15.8149C96.0481 16.5752 95.6577 17.726 95.6577 19.2672V27.0965H90.8491V10.5132H95.4419V12.7017Z" fill="white"/>
<path d="M120.097 18.8665C120.097 18.9281 120.067 19.3597 120.005 20.1611H107.459C107.686 21.1886 108.22 22.0003 109.062 22.5962C109.905 23.1921 110.953 23.4901 112.206 23.4901C113.069 23.4901 113.83 23.3668 114.487 23.1202C115.165 22.8531 115.792 22.4421 116.368 21.8872L118.926 24.6614C117.364 26.4492 115.083 27.3431 112.083 27.3431C110.213 27.3431 108.559 26.9835 107.12 26.2643C105.682 25.5245 104.572 24.5073 103.791 23.2127C103.011 21.9181 102.62 20.4488 102.62 18.8048C102.62 17.1814 103 15.7224 103.761 14.4278C104.541 13.1127 105.6 12.0955 106.935 11.3762C108.292 10.6365 109.802 10.2666 111.467 10.2666C113.09 10.2666 114.559 10.6159 115.874 11.3146C117.19 12.0133 118.217 13.0202 118.957 14.3353C119.717 15.63 120.097 17.1403 120.097 18.8665ZM111.497 13.9038C110.408 13.9038 109.494 14.2121 108.754 14.8285C108.014 15.445 107.562 16.2875 107.398 17.3561H115.566C115.402 16.3081 114.95 15.4758 114.21 14.8594C113.47 14.2223 112.566 13.9038 111.497 13.9038Z" fill="white"/>
<path d="M32.2203 12.5634C32.2203 11.5397 33.0502 10.7099 34.0739 10.7099C35.0976 10.7099 35.9275 11.5397 35.9275 12.5634V25.6747C35.9275 26.6984 35.0976 27.5282 34.0739 27.5282C33.0502 27.5282 32.2203 26.6984 32.2203 25.6747V12.5634Z" fill="white"/>
<path d="M26.5268 15.7313C26.5268 14.7076 27.3567 13.8777 28.3804 13.8777C29.4041 13.8777 30.2339 14.7076 30.2339 15.7313V22.5064C30.2339 23.5301 29.4041 24.36 28.3804 24.36C27.3567 24.36 26.5268 23.5301 26.5268 22.5064V15.7313Z" fill="white"/>
<path d="M37.9135 15.7313C37.9135 14.7076 38.7434 13.8777 39.7671 13.8777C40.7908 13.8777 41.6206 14.7076 41.6206 15.7313V22.5064C41.6206 23.5301 40.7908 24.36 39.7671 24.36C38.7434 24.36 37.9135 23.5301 37.9135 22.5064V15.7313Z" fill="white"/>
<path d="M35.9274 7.49956C35.9274 8.52095 35.0975 9.34895 34.0738 9.34895C33.05 9.34895 32.2202 8.52095 32.2202 7.49956C32.2202 6.47817 33.05 5.65017 34.0738 5.65017C35.0975 5.65017 35.9274 6.47817 35.9274 7.49956Z" fill="white"/>
<path d="M132.912 0.311035V1.08163M132.912 1.08163L132.912 33.1831M132.912 1.08163H138.82M132.912 1.08163H127.012M132.912 33.1831V33.3605M132.912 33.1831H138.82M132.912 33.1831H127.012" stroke="white" stroke-width="1.5973"/>
</svg>
