<svg width="104" height="120" viewBox="0 0 104 120" fill="none" xmlns="http://www.w3.org/2000/svg">
<g filter="url(#filter0_ddd)">
<circle cx="60" cy="60" r="28" fill="#FED229"/>
<path fill-rule="evenodd" clip-rule="evenodd" d="M51.5179 56.3847H51.4211C50.779 56.3847 50.1632 56.6386 49.7091 57.0906C49.2551 57.5426 49 58.1556 49 58.7948V61.2049C49 61.8441 49.2551 62.4571 49.7091 62.909C50.1632 63.361 50.779 63.6149 51.4211 63.6149H51.5179C51.8672 63.6148 52.2124 63.6899 52.5299 63.8351C52.8473 63.9803 53.1293 64.1921 53.3567 64.456L57.7655 69.5774C58.4967 70.4258 59.8949 69.9112 59.8949 68.793V51.2067C59.8949 50.0884 58.4967 49.5739 57.7643 50.4234L53.358 55.5424C53.1305 55.8067 52.8483 56.0189 52.5307 56.1643C52.213 56.3097 51.8675 56.3849 51.5179 56.3847ZM67.928 50.6909C67.8135 50.5785 67.6775 50.49 67.5282 50.4305C67.3789 50.371 67.2191 50.3417 67.0583 50.3444C66.8974 50.347 66.7388 50.3815 66.5915 50.4459C66.4442 50.5103 66.3113 50.6033 66.2005 50.7194C66.0898 50.8355 66.0034 50.9725 65.9464 51.1222C65.8893 51.2719 65.8629 51.4315 65.8685 51.5915C65.8742 51.7515 65.9118 51.9088 65.9792 52.0542C66.0466 52.1996 66.1425 52.3301 66.2611 52.4382C70.6857 56.6221 70.6857 63.3775 66.2611 67.5614C66.1425 67.6695 66.0466 67.8001 65.9792 67.9455C65.9118 68.0908 65.8742 68.2481 65.8685 68.4082C65.8629 68.5682 65.8893 68.7277 65.9464 68.8775C66.0034 69.0272 66.0898 69.1641 66.2005 69.2802C66.3113 69.3964 66.4442 69.4893 66.5915 69.5537C66.7388 69.6181 66.8974 69.6526 67.0583 69.6553C67.2191 69.658 67.3789 69.6287 67.5282 69.5692C67.6775 69.5097 67.8135 69.4211 67.928 69.3087C73.3573 64.1753 73.3573 55.8244 67.928 50.6909ZM64.3606 54.065C64.1278 53.8448 63.8167 53.7257 63.4957 53.7338C63.1747 53.742 62.8701 53.8767 62.6489 54.1084C62.4277 54.3401 62.308 54.6498 62.3161 54.9694C62.3243 55.2889 62.4597 55.5921 62.6924 55.8123C65.1462 58.132 65.1462 61.8676 62.6924 64.1873C62.5772 64.2964 62.4846 64.4269 62.4201 64.5716C62.3555 64.7162 62.3202 64.8721 62.3161 65.0303C62.3121 65.1885 62.3394 65.346 62.3965 65.4937C62.4536 65.6414 62.5393 65.7765 62.6489 65.8912C62.8701 66.1229 63.1747 66.2577 63.4957 66.2658C63.6546 66.2699 63.8128 66.2427 63.9612 66.1859C64.1096 66.129 64.2453 66.0437 64.3606 65.9346C67.8191 62.6642 67.8191 57.3355 64.3606 54.065Z" fill="#3B5998"/>
</g>
<circle cx="60" cy="60" r="44" stroke="white"/>
<circle opacity="0.5" cx="60" cy="60" r="59" stroke="white"/>
<defs>
<filter id="filter0_ddd" x="14" y="15" width="92" height="92" filterUnits="userSpaceOnUse" color-interpolation-filters="sRGB">
<feFlood flood-opacity="0" result="BackgroundImageFix"/>
<feColorMatrix in="SourceAlpha" type="matrix" values="0 0 0 0 0 0 0 0 0 0 0 0 0 0 0 0 0 0 127 0"/>
<feOffset dy="3"/>
<feGaussianBlur stdDeviation="2.5"/>
<feColorMatrix type="matrix" values="0 0 0 0 0 0 0 0 0 0 0 0 0 0 0 0 0 0 0.2 0"/>
<feBlend mode="normal" in2="BackgroundImageFix" result="effect1_dropShadow"/>
<feColorMatrix in="SourceAlpha" type="matrix" values="0 0 0 0 0 0 0 0 0 0 0 0 0 0 0 0 0 0 127 0"/>
<feOffset dy="1"/>
<feGaussianBlur stdDeviation="9"/>
<feColorMatrix type="matrix" values="0 0 0 0 0 0 0 0 0 0 0 0 0 0 0 0 0 0 0.12 0"/>
<feBlend mode="normal" in2="effect1_dropShadow" result="effect2_dropShadow"/>
<feColorMatrix in="SourceAlpha" type="matrix" values="0 0 0 0 0 0 0 0 0 0 0 0 0 0 0 0 0 0 127 0"/>
<feOffset dy="6"/>
<feGaussianBlur stdDeviation="5"/>
<feColorMatrix type="matrix" values="0 0 0 0 0 0 0 0 0 0 0 0 0 0 0 0 0 0 0.14 0"/>
<feBlend mode="normal" in2="effect2_dropShadow" result="effect3_dropShadow"/>
<feBlend mode="normal" in="SourceGraphic" in2="effect3_dropShadow" result="shape"/>
</filter>
</defs>
</svg>
